<?xml version="1.0" encoding="UTF-8"?>
<svg version="1.1" xmlns="http://www.w3.org/2000/svg" width="512" height="512">
<path d="M0 0 C1.55558372 -0.00569504 1.55558372 -0.00569504 3.14259338 -0.01150513 C6.57819779 -0.01892031 10.0129565 0.00252763 13.44848633 0.02490234 C15.86713055 0.02729149 18.28577665 0.0281911 20.704422 0.02767944 C25.79460162 0.03081171 30.88450053 0.04737915 35.97460938 0.07421875 C42.39112784 0.10767934 48.80733353 0.11568154 55.22392845 0.11458778 C187.81123247 0.1201504 187.81123247 0.1201504 217.37036133 28.23583984 C217.97557617 28.85458984 217.97557617 28.85458984 218.59301758 29.48583984 C221.91057971 27.98340366 224.54217162 26.03711571 227.40551758 23.79833984 C252.57269747 5.42230373 286.53253862 3.2346595 316.59301758 1.48583984 C317.62325058 1.42560623 317.62325058 1.42560623 318.67429638 1.36415577 C333.76201197 0.5053401 348.82307006 0.29122152 363.93286133 0.24755859 C365.14176088 0.24348307 366.35066044 0.23940754 367.59619331 0.23520851 C373.96386658 0.21457244 380.33151958 0.20016128 386.69921875 0.19067383 C393.25940293 0.17949735 399.81925836 0.14490687 406.37932491 0.10550213 C411.45191591 0.07941494 416.52442614 0.07099032 421.59707832 0.06739235 C424.01759696 0.06252664 426.438112 0.05091318 428.85856438 0.03235435 C432.22727447 0.00807371 435.59509688 0.00890487 438.96386719 0.01586914 C439.9565863 0.00305908 440.94930542 -0.00975098 441.97210693 -0.02294922 C447.67200536 0.02005817 451.19404234 0.49526022 455.59301758 4.48583984 C459.07071197 8.91833607 460.09333809 11.77902305 460.09638214 17.3918457 C460.1021959 18.06556717 460.10800967 18.73928864 460.11399961 19.4334259 C460.12859029 21.68954435 460.11471989 23.94457321 460.10095215 26.20068359 C460.10556146 27.83501237 460.11191458 29.469337 460.11986113 31.10365295 C460.1365735 35.59364917 460.12829945 40.08330572 460.11591625 44.57330322 C460.10687589 49.41591708 460.12083045 54.25847202 460.13183594 59.10107422 C460.14963657 68.58732268 460.14577429 78.07344466 460.13418537 87.5596981 C460.12515741 95.26832493 460.1239243 102.97691628 460.12828064 110.68554688 C460.12889357 111.78204465 460.1295065 112.87854242 460.13013801 114.0082674 C460.13141689 116.23567582 460.13271374 118.46308423 460.13402838 120.69049263 C460.1454387 141.58436446 460.13231336 162.47816612 460.11082691 183.37202644 C460.09295553 201.30583272 460.09605951 219.23953544 460.11450195 237.17333984 C460.13590066 257.99167079 460.14434002 278.80994023 460.1320529 299.62828064 C460.13077868 301.84756469 460.1295212 304.06684875 460.12828064 306.28613281 C460.12735499 307.92409301 460.12735499 307.92409301 460.12641063 309.59514332 C460.12295474 317.29586576 460.12879125 324.99654922 460.13819885 332.69726562 C460.1494091 342.07994286 460.14639928 351.46248622 460.12507588 360.84514809 C460.11455237 365.63373815 460.11046579 370.42210487 460.12367249 375.21069336 C460.13557528 379.592726 460.12906887 383.97432788 460.10776228 388.35632133 C460.10328723 389.94304414 460.10558271 391.52980319 460.11526543 393.11650276 C460.12740905 395.27146575 460.11497735 397.42494852 460.09638214 399.57983398 C460.09573273 400.77725723 460.09508332 401.97468048 460.09441423 403.20838928 C459.31134819 408.32701185 456.79005592 411.403982 453.01513672 414.81567383 C448.24277857 417.14482429 444.09197724 417.14492797 438.83911133 417.20849609 C437.72185165 417.23669937 436.60459198 417.26490265 435.45347595 417.29396057 C431.50016779 417.38346627 427.54698008 417.43772884 423.59301758 417.48583984 C422.05063656 417.50689403 420.50825788 417.52811962 418.96588135 417.54949951 C404.68486652 417.74167994 390.40302023 417.86230065 376.12109375 417.96264648 C357.15457895 418.09927581 338.21698003 418.32881184 319.27661133 419.39599609 C318.21936702 419.45350446 318.21936702 419.45350446 317.14076424 419.51217461 C301.64768747 419.30240127 301.64768747 419.30240127 287.75340271 423.97035217 C286.88358254 425.09275154 286.05378927 426.24666662 285.25317383 427.41943359 C274.35743651 440.98142192 252.99833598 446.44814463 236.59301758 448.48583984 C208.20542995 449.87607228 180.83833936 448.78924282 157.59301758 430.48583984 C156.13895508 429.40302734 156.13895508 429.40302734 154.65551758 428.29833984 C152.59301758 426.48583984 152.59301758 426.48583984 151.35206604 424.44642639 C148.8879802 421.70002477 147.01381617 421.72193895 143.38574219 421.30395508 C141.49733109 421.08387283 141.49733109 421.08387283 139.57077026 420.85934448 C133.02211596 420.24443628 126.47696482 419.75323475 119.90942383 419.39599609 C119.17116426 419.35439928 118.4329047 419.31280247 117.67227364 419.26994514 C98.56125408 418.21177844 79.43805447 418.07768515 60.30249023 417.9432373 C46.15662913 417.84169708 32.01099818 417.71294014 17.86611176 417.51686859 C16.38547923 417.4966573 14.90483231 417.47746615 13.42417145 417.45944977 C9.0640523 417.40597439 4.70595719 417.31853231 0.34692383 417.20849609 C-1.19657494 417.18981728 -1.19657494 417.18981728 -2.77125549 417.17076111 C-8.43705206 416.98914768 -12.03308141 416.43887871 -16.40698242 412.48583984 C-19.88488013 408.05368206 -20.90730308 405.19239107 -20.91034698 399.57983398 C-20.91906763 398.56925179 -20.91906763 398.56925179 -20.92796445 397.53825378 C-20.94255513 395.28213534 -20.92868474 393.02710648 -20.91491699 390.77099609 C-20.9195263 389.13666732 -20.92587943 387.50234269 -20.93382597 385.86802673 C-20.95053834 381.37803052 -20.94226429 376.88837397 -20.9298811 372.39837646 C-20.92084073 367.55576261 -20.9347953 362.71320767 -20.94580078 357.87060547 C-20.96360142 348.38435701 -20.95973913 338.89823503 -20.94815022 329.41198158 C-20.93912225 321.70335475 -20.93788914 313.99476341 -20.94224548 306.28613281 C-20.94285842 305.18963504 -20.94347135 304.09313726 -20.94410285 302.96341228 C-20.94538174 300.73600387 -20.94667859 298.50859546 -20.94799322 296.28118706 C-20.95940354 275.38731523 -20.94627821 254.49351356 -20.92479175 233.59965324 C-20.90692037 215.66584697 -20.91002435 197.73214425 -20.9284668 179.79833984 C-20.94986551 158.98000889 -20.95830486 138.16173946 -20.94601774 117.34339905 C-20.94474353 115.124115 -20.94348604 112.90483094 -20.94224548 110.68554688 C-20.94162838 109.59357341 -20.94101128 108.50159994 -20.94037548 107.37653637 C-20.93691958 99.67581393 -20.94275609 91.97513047 -20.9521637 84.27441406 C-20.96337394 74.89173683 -20.96036412 65.50919347 -20.93904072 56.1265316 C-20.92851721 51.33794154 -20.92443063 46.54957482 -20.93763733 41.76098633 C-20.94954012 37.37895369 -20.94303371 32.99735181 -20.92172712 28.61535835 C-20.91725207 27.02863555 -20.91954756 25.4418765 -20.92923027 23.85517693 C-20.9413739 21.70021393 -20.9289422 19.54673117 -20.91034698 17.3918457 C-20.90969758 16.19442245 -20.90904817 14.99699921 -20.90837908 13.76329041 C-20.12344175 8.6324359 -17.59429475 5.5567173 -13.80741882 2.14120483 C-9.11652947 -0.14236501 -5.15209818 -0.05965081 0 0 Z M11.59301758 32.48583984 C11.59301758 127.52583984 11.59301758 222.56583984 11.59301758 320.48583984 C55.64801758 320.98083984 55.64801758 320.98083984 100.59301758 321.48583984 C176.04627411 325.67768743 176.04627411 325.67768743 198.88598633 337.13818359 C201.38742837 338.63439411 201.38742837 338.63439411 203.59301758 338.48583984 C203.70749975 304.11527273 203.7955851 269.7447492 203.84834423 235.37403256 C203.85459765 231.3148658 203.86106927 227.25569941 203.86767578 223.1965332 C203.86898733 222.38843739 203.87029889 221.58034158 203.87165018 220.74775802 C203.89339777 207.66876339 203.93281571 194.58987882 203.97878156 181.51094944 C204.02556425 168.08749554 204.0533168 154.66409922 204.06346005 141.24056715 C204.07031548 132.95965033 204.09195559 124.67904461 204.13259991 116.39822357 C204.1590607 110.71722754 204.16701106 105.03639198 204.16052447 99.35533882 C204.15732665 96.07912513 204.16492219 92.80356776 204.18904495 89.52742577 C204.21395379 85.96996489 204.20792886 82.41383063 204.19429016 78.8563385 C204.20885437 77.82810709 204.22341858 76.79987567 204.23842412 75.74048573 C204.14370148 66.58796429 200.46525727 59.83621081 194.37817383 53.11083984 C179.48187105 39.55096686 157.31049852 37.64901411 138.21801758 35.79833984 C136.37687378 35.61936157 136.37687378 35.61936157 134.49853516 35.43676758 C93.75353502 31.75974734 52.22161164 32.93726867 11.59301758 32.48583984 Z M412.73461914 32.54589844 C411.98027084 32.55243942 411.22592255 32.55898041 410.44871521 32.5657196 C403.42105829 32.62790179 396.39349547 32.69923579 389.36595535 32.77336693 C384.68076568 32.82262327 379.99559216 32.86897799 375.31030273 32.90771484 C356.24391204 33.06731057 337.20932091 33.33311336 318.17114258 34.44287109 C317.10508663 34.50460825 317.10508663 34.50460825 316.0174942 34.56759262 C281.23296826 36.28288392 281.23296826 36.28288392 249.59301758 49.48583984 C248.93172852 49.93572266 248.27043945 50.38560547 247.58911133 50.84912109 C241.94376585 55.17762573 238.73043071 61.21101359 235.59301758 67.48583984 C235.49981178 68.97629276 235.46928029 70.4708787 235.46996975 71.96424294 C235.4679787 72.91222523 235.46598765 73.86020753 235.46393627 74.83691657 C235.46684911 75.88553787 235.46976195 76.93415918 235.47276306 78.01455688 C235.47190864 79.12290842 235.47105421 80.23125996 235.4701739 81.37319791 C235.46851796 85.11209596 235.47404235 88.85094979 235.47949219 92.58984375 C235.47977406 95.26005658 235.47966043 97.93026664 235.47904968 100.60047913 C235.47852455 106.36212248 235.48167021 112.12375454 235.48728752 117.88539505 C235.495404 126.21582706 235.49801789 134.54625359 235.49927551 142.87668912 C235.5014658 156.3912659 235.50812525 169.90583665 235.51757812 183.42041016 C235.52675285 196.5509437 235.53383339 209.68147562 235.53808594 222.81201172 C235.53834866 223.62096207 235.53861138 224.42991243 235.53888207 225.26337643 C235.54018708 229.32151846 235.54145079 233.3796605 235.54269397 237.43780255 C235.55306586 271.12048602 235.57068354 304.80316219 235.59301758 338.48583984 C239.07718648 337.32847954 242.54858697 336.15348217 245.99926758 334.89990234 C302.21964779 314.92972868 371.53698757 321.11568288 427.59301758 320.48583984 C427.59301758 225.44583984 427.59301758 130.40583984 427.59301758 32.48583984 C422.63949883 32.48583984 417.6877397 32.50171158 412.73461914 32.54589844 Z M11.59301758 352.48583984 C11.59301758 363.04583984 11.59301758 373.60583984 11.59301758 384.48583984 C15.24775146 384.51556885 15.24775146 384.51556885 18.97631836 384.54589844 C27.20239869 384.61406222 35.42837312 384.69164478 43.6543293 384.77336693 C48.62149643 384.82244479 53.58865066 384.86874736 58.5559082 384.90771484 C78.94483748 385.06973833 99.30362177 385.35402714 119.66723633 386.43896484 C120.44436604 386.47985607 121.22149574 386.5207473 122.02217484 386.56287766 C134.29044241 387.22261787 146.52167769 388.10134161 158.59301758 390.48583984 C159.70676758 390.70369141 160.82051758 390.92154297 161.96801758 391.14599609 C168.58043962 392.97359607 172.09644464 396.90500336 176.40478516 401.97949219 C185.62812971 412.59833481 199.58140949 415.1081196 213.03051758 416.23583984 C229.65139195 417.03705122 248.26121177 415.61627289 261.28051758 404.11083984 C263.48724201 401.69230638 263.48724201 401.69230638 264.83911133 399.75537109 C271.08442072 391.45777873 280.22333074 390.31828796 289.96801758 388.86083984 C299.61222928 387.63382693 309.28418685 386.96607251 318.98754883 386.43896484 C319.77127554 386.39592854 320.55500225 386.35289223 321.36247826 386.30855179 C341.87212301 385.20796046 362.39256325 385.04368225 382.92706299 384.88494873 C387.99090296 384.84395984 393.05464721 384.79331708 398.1184082 384.74365234 C407.94321519 384.64863179 417.76806687 384.56461108 427.59301758 384.48583984 C427.59301758 373.92583984 427.59301758 363.36583984 427.59301758 352.48583984 C416.46285071 352.57258215 405.33281129 352.66692236 394.20281506 352.77336693 C389.0304175 352.82255745 383.85803327 352.86886782 378.68554688 352.90771484 C358.41434282 353.06196598 338.16636744 353.25443735 317.92504883 354.44287109 C317.22104635 354.4840292 316.51704388 354.5251873 315.79170799 354.56759262 C276.67908576 356.27083589 276.67908576 356.27083589 243.28051758 374.42333984 C239.45640715 379.07667843 236.93987496 384.40159424 234.55664062 389.90161133 C232.42294358 394.62004478 230.39962264 397.10651041 225.59301758 399.48583984 C222.59301758 400.01708984 222.59301758 400.01708984 219.59301758 399.98583984 C218.10801758 400.00130859 218.10801758 400.00130859 216.59301758 400.01708984 C212.59573985 399.30923858 210.6686992 398.16320222 207.59301758 395.48583984 C205.70691961 392.53102589 204.26053597 389.40904549 202.78051758 386.23583984 C196.41450572 373.4978364 189.06034704 367.44904707 175.59301758 362.48583984 C158.08343944 356.85298755 139.50666771 355.50063371 121.24926758 354.43896484 C120.14649507 354.37441038 120.14649507 354.37441038 119.02144432 354.30855179 C98.52037662 353.14029881 77.99787623 353.03912581 57.46917725 352.88494873 C52.27146746 352.84404634 47.0738524 352.79336123 41.8762207 352.74365234 C31.78188162 352.64847773 21.68749878 352.5645106 11.59301758 352.48583984 Z " fill="#f56e0f" transform="translate(36.406982421875,31.51416015625)"/>
<path d="M0 0 C2.18528621 -0.01170984 4.37053993 -0.03244628 6.55566406 -0.06152344 C9.77183734 -0.10401015 12.98719523 -0.12031672 16.20361328 -0.13061523 C17.17544556 -0.14812332 18.14727783 -0.16563141 19.14855957 -0.18367004 C24.87453462 -0.16525253 28.21270037 0.42783003 32.73486328 4.29516602 C36.36319992 8.11446774 37.04486786 11.17795608 37.23486328 16.29516602 C37.04486786 21.41237595 36.36319992 24.4758643 32.73486328 28.29516602 C28.06773298 31.89274563 24.47748937 33.3889958 18.66113281 33.46875 C17.86179321 33.48230026 17.06245361 33.49585052 16.2388916 33.5098114 C14.94138977 33.52537834 14.94138977 33.52537834 13.61767578 33.54125977 C11.72916353 33.57330216 9.84065454 33.60553705 7.95214844 33.63793945 C6.95822083 33.65336792 5.96429321 33.66879639 4.94024658 33.68469238 C-8.2119593 33.88952374 -21.35244488 34.10581572 -34.48388672 34.90844727 C-35.35361115 34.96081039 -36.22333557 35.01317352 -37.11941528 35.06712341 C-41.20917182 35.31832033 -45.29577186 35.59317525 -49.38183594 35.8984375 C-62.87485206 36.82768362 -62.87485206 36.82768362 -69.26513672 33.29516602 C-73.65004607 29.1388043 -75.45249785 25.65833902 -75.70263672 19.67016602 C-75.66255495 14.11216049 -74.54899397 11.0846966 -71.06591797 6.81860352 C-66.48684381 2.94476637 -61.06480593 2.75588129 -55.32763672 2.23266602 C-54.580625 2.15467773 -53.83361328 2.07668945 -53.06396484 1.99633789 C-35.45225121 0.2983161 -17.67993172 0.06595985 0 0 Z " fill="#f56e0f" transform="translate(395.26513671875,191.704833984375)"/>
<path d="M0 0 C0.84901886 -0.00628922 1.69803772 -0.01257843 2.57278442 -0.01905823 C3.4962265 -0.02026169 4.41966858 -0.02146515 5.37109375 -0.02270508 C6.8218782 -0.02892128 6.8218782 -0.02892128 8.30197144 -0.03526306 C11.47088344 -0.04499778 14.63966899 -0.04491033 17.80859375 -0.04223633 C18.88449768 -0.04229675 19.96040161 -0.04235718 21.06890869 -0.04241943 C35.29400067 -0.03103449 49.48098245 0.19965699 63.68359375 1.02026367 C64.74803711 1.07907211 64.74803711 1.07907211 65.83398438 1.1390686 C88.41592944 2.42577122 88.41592944 2.42577122 93.80859375 8.14526367 C97.67781336 13.61879386 97.59404819 18.64099485 96.80859375 25.14526367 C94.5320556 30.04857661 91.61045304 32.69903347 86.80859375 35.14526367 C79.64604513 36.38296379 72.87536635 35.97357833 65.65158081 35.4236145 C54.66841847 34.59412039 43.70519908 34.06559822 32.69140625 33.89135742 C31.66075546 33.87439819 30.63010468 33.85743896 29.56822205 33.83996582 C24.44430758 33.7600326 19.32092734 33.70062651 14.1965332 33.66333008 C12.29507951 33.63816076 10.39363064 33.61262411 8.4921875 33.58666992 C7.63194977 33.5866246 6.77171204 33.58657928 5.88540649 33.58653259 C-0.02657641 33.48925974 -6.20856346 32.91472397 -10.75489807 28.69361877 C-15.24246478 23.43250036 -15.53309226 19.87673761 -15.4765625 13.13354492 C-15.00122341 8.15225173 -12.77380094 5.53585295 -9.12890625 2.33276367 C-6.06150003 0.4527405 -3.51684793 0.01810367 0 0 Z " fill="#f56e0f" transform="translate(95.19140625,271.854736328125)"/>
<path d="M0 0 C0.84901886 -0.00628922 1.69803772 -0.01257843 2.57278442 -0.01905823 C3.4962265 -0.02026169 4.41966858 -0.02146515 5.37109375 -0.02270508 C6.8218782 -0.02892128 6.8218782 -0.02892128 8.30197144 -0.03526306 C11.47088344 -0.04499778 14.63966899 -0.04491033 17.80859375 -0.04223633 C18.88449768 -0.04229675 19.96040161 -0.04235718 21.06890869 -0.04241943 C35.29400067 -0.03103449 49.48098245 0.19965699 63.68359375 1.02026367 C64.74803711 1.07907211 64.74803711 1.07907211 65.83398438 1.1390686 C88.41592944 2.42577122 88.41592944 2.42577122 93.80859375 8.14526367 C97.67781336 13.61879386 97.59404819 18.64099485 96.80859375 25.14526367 C94.5320556 30.04857661 91.61045304 32.69903347 86.80859375 35.14526367 C79.64604513 36.38296379 72.87536635 35.97357833 65.65158081 35.4236145 C54.66841847 34.59412039 43.70519908 34.06559822 32.69140625 33.89135742 C31.66075546 33.87439819 30.63010468 33.85743896 29.56822205 33.83996582 C24.44430758 33.7600326 19.32092734 33.70062651 14.1965332 33.66333008 C12.29507951 33.63816076 10.39363064 33.61262411 8.4921875 33.58666992 C7.63194977 33.5866246 6.77171204 33.58657928 5.88540649 33.58653259 C-0.02657641 33.48925974 -6.20856346 32.91472397 -10.75489807 28.69361877 C-15.24246478 23.43250036 -15.53309226 19.87673761 -15.4765625 13.13354492 C-15.00122341 8.15225173 -12.77380094 5.53585295 -9.12890625 2.33276367 C-6.06150003 0.4527405 -3.51684793 0.01810367 0 0 Z " fill="#f56e0f" transform="translate(95.19140625,191.854736328125)"/>
<path d="M0 0 C0.84901886 -0.00628922 1.69803772 -0.01257843 2.57278442 -0.01905823 C3.4962265 -0.02026169 4.41966858 -0.02146515 5.37109375 -0.02270508 C6.8218782 -0.02892128 6.8218782 -0.02892128 8.30197144 -0.03526306 C11.47088344 -0.04499778 14.63966899 -0.04491033 17.80859375 -0.04223633 C18.88449768 -0.04229675 19.96040161 -0.04235718 21.06890869 -0.04241943 C35.29400067 -0.03103449 49.48098245 0.19965699 63.68359375 1.02026367 C64.74803711 1.07907211 64.74803711 1.07907211 65.83398438 1.1390686 C88.41592944 2.42577122 88.41592944 2.42577122 93.80859375 8.14526367 C97.67781336 13.61879386 97.59404819 18.64099485 96.80859375 25.14526367 C94.5320556 30.04857661 91.61045304 32.69903347 86.80859375 35.14526367 C79.64604513 36.38296379 72.87536635 35.97357833 65.65158081 35.4236145 C54.66841847 34.59412039 43.70519908 34.06559822 32.69140625 33.89135742 C31.66075546 33.87439819 30.63010468 33.85743896 29.56822205 33.83996582 C24.44430758 33.7600326 19.32092734 33.70062651 14.1965332 33.66333008 C12.29507951 33.63816076 10.39363064 33.61262411 8.4921875 33.58666992 C7.63194977 33.5866246 6.77171204 33.58657928 5.88540649 33.58653259 C-0.02657641 33.48925974 -6.20856346 32.91472397 -10.75489807 28.69361877 C-15.24246478 23.43250036 -15.53309226 19.87673761 -15.4765625 13.13354492 C-15.00122341 8.15225173 -12.77380094 5.53585295 -9.12890625 2.33276367 C-6.06150003 0.4527405 -3.51684793 0.01810367 0 0 Z " fill="#f56e0f" transform="translate(95.19140625,111.854736328125)"/>
<path d="M0 0 C2.12315648 -0.01680077 4.24625131 -0.04439251 6.36914062 -0.08203125 C9.50109816 -0.13679408 12.63178892 -0.15863624 15.76416016 -0.17333984 C16.70379608 -0.19600922 17.64343201 -0.21867859 18.61154175 -0.24203491 C25.03994356 -0.22143503 29.30361332 1.20113235 34.27197266 5.35009766 C37.90261113 9.84346211 37.77726144 13.88551679 37.61962891 19.47119141 C37.14437065 23.40675696 35.99446692 25.48431423 33.27197266 28.35009766 C28.60484235 31.94767727 25.01459874 33.44392744 19.19824219 33.52368164 C18.39890259 33.5372319 17.59956299 33.55078217 16.77600098 33.56474304 C15.47849915 33.58030998 15.47849915 33.58030998 14.15478516 33.59619141 C12.26627291 33.6282338 10.37776392 33.66046869 8.48925781 33.69287109 C7.4953302 33.70829956 6.50140259 33.72372803 5.47735596 33.73962402 C-7.67484992 33.94445538 -20.81533551 34.16074736 -33.94677734 34.96337891 C-34.81650177 35.01574203 -35.6862262 35.06810516 -36.58230591 35.12205505 C-40.67206245 35.37325197 -44.75866249 35.64810689 -48.84472656 35.95336914 C-62.33774269 36.88261526 -62.33774269 36.88261526 -68.72802734 33.35009766 C-73.1129367 29.19373594 -74.91538847 25.71327066 -75.16552734 19.72509766 C-75.12544557 14.16709213 -74.0118846 11.13962824 -70.52880859 6.87353516 C-65.94973443 2.99969802 -60.52769655 2.81081293 -54.79052734 2.28759766 C-54.04351562 2.20960938 -53.29650391 2.13162109 -52.52685547 2.05126953 C-35.0995249 0.37102491 -17.49591021 0.10122731 0 0 Z " fill="#f56e0f" transform="translate(394.72802734375,271.64990234375)"/>
<path d="M0 0 C2.12315648 -0.01680077 4.24625131 -0.04439251 6.36914062 -0.08203125 C9.50109816 -0.13679408 12.63178892 -0.15863624 15.76416016 -0.17333984 C16.70379608 -0.19600922 17.64343201 -0.21867859 18.61154175 -0.24203491 C25.03994356 -0.22143503 29.30361332 1.20113235 34.27197266 5.35009766 C37.90261113 9.84346211 37.77726144 13.88551679 37.61962891 19.47119141 C37.14437065 23.40675696 35.99446692 25.48431423 33.27197266 28.35009766 C28.60484235 31.94767727 25.01459874 33.44392744 19.19824219 33.52368164 C18.39890259 33.5372319 17.59956299 33.55078217 16.77600098 33.56474304 C15.47849915 33.58030998 15.47849915 33.58030998 14.15478516 33.59619141 C12.26627291 33.6282338 10.37776392 33.66046869 8.48925781 33.69287109 C7.4953302 33.70829956 6.50140259 33.72372803 5.47735596 33.73962402 C-7.67484992 33.94445538 -20.81533551 34.16074736 -33.94677734 34.96337891 C-34.81650177 35.01574203 -35.6862262 35.06810516 -36.58230591 35.12205505 C-40.67206245 35.37325197 -44.75866249 35.64810689 -48.84472656 35.95336914 C-62.33774269 36.88261526 -62.33774269 36.88261526 -68.72802734 33.35009766 C-73.15509262 29.15377724 -74.90590997 25.70500336 -75.10302734 19.66259766 C-75.05525163 14.68197957 -74.46101175 11.67383253 -71.40771484 7.75244141 C-66.30516982 3.49240963 -61.10100608 2.74596611 -54.72802734 2.22509766 C-53.98552734 2.15162109 -53.24302734 2.07814453 -52.47802734 2.00244141 C-35.05785906 0.41117603 -17.48209846 0.1011474 0 0 Z " fill="#f56e0f" transform="translate(394.72802734375,111.64990234375)"/>
</svg>
