<?xml version="1.0" encoding="UTF-8"?>
<svg version="1.1" xmlns="http://www.w3.org/2000/svg" width="512" height="512">
<path d="M0 0 C5.4521357 2.53134872 6.4759981 4.71399714 10 10 C10 17.26 10 24.52 10 32 C83.92 32 157.84 32 234 32 C234 24.74 234 17.48 234 10 C239.17241379 2.24137931 239.17241379 2.24137931 244 0 C249.5997712 -0.75381535 254.33499991 -0.77303575 259.5 1.625 C263.06513686 5.01188002 265.69639119 7.58455122 266.3203125 12.54833984 C266.39313609 15.50022395 266.3490024 18.42396697 266.25 21.375 C266.23195313 22.39722656 266.21390625 23.41945313 266.1953125 24.47265625 C266.14839491 26.98274749 266.08276729 29.49087764 266 32 C266.69998108 31.99111755 267.39996216 31.98223511 268.12115479 31.9730835 C274.76903473 31.89240763 281.41677493 31.83176961 288.06503677 31.79275131 C291.48172407 31.77201599 294.89800158 31.74396238 298.31445312 31.69824219 C302.25645777 31.64582853 306.19830569 31.62693864 310.140625 31.609375 C311.95074066 31.57840729 311.95074066 31.57840729 313.79742432 31.54681396 C328.34178036 31.54302683 339.16923358 36.49577141 349.75 46.3125 C360.42532632 57.59209007 362.45642727 69.97623043 362.40405273 84.99316406 C362.40976564 86.48242705 362.41673344 87.97168567 362.42485046 89.4609375 C362.44268722 93.477213 362.44163253 97.49326893 362.43590808 101.50957203 C362.43280503 104.86968787 362.43892044 108.22976221 362.44494683 111.58987212 C362.45895678 119.51535397 362.45745787 127.44072791 362.44604492 135.36621094 C362.43454328 143.5336631 362.44868158 151.70078767 362.4754414 159.86819673 C362.49759985 166.89520901 362.50423616 173.92211846 362.49836498 180.9491632 C362.49499743 185.14001944 362.4973981 189.33066527 362.51461601 193.521492 C362.53008752 197.45825269 362.5261278 201.39452683 362.50731087 205.33126831 C362.50362675 206.77360695 362.50672839 208.21598169 362.51719666 209.65828705 C362.53041686 211.63057304 362.51644459 213.60298492 362.50120544 215.57525635 C362.50099616 216.67763767 362.50078688 217.780019 362.50057125 218.91580582 C361.67932575 223.975786 359.10418337 227.07148217 355.25 230.3125 C349.93967849 233.06978232 345.46631134 233.72627647 339.8125 231.9375 C335.07673074 229.92386583 332.29917633 226.59835266 330 222 C330 201.54 330 181.08 330 160 C192.72 160 55.44 160 -86 160 C-85.896875 204.694375 -85.79375 249.38875 -85.6875 295.4375 C-85.66260498 309.55587646 -85.63770996 323.67425293 -85.61206055 338.22045898 C-85.57550124 350.86335611 -85.57550124 350.86335611 -85.5349884 363.50624084 C-85.51703365 369.14252266 -85.50719587 374.77874709 -85.50288391 380.41505432 C-85.49788144 386.91732215 -85.4825442 393.41946829 -85.45451616 399.92167914 C-85.44050561 403.24697177 -85.4327474 406.57195073 -85.43496072 409.89729393 C-85.43661483 413.46224444 -85.41994826 417.02666029 -85.39872742 420.59153748 C-85.40357556 421.62336183 -85.40842371 422.65518618 -85.41341877 423.71827793 C-85.343251 430.88337119 -84.78872161 437.97888492 -79.75 443.4375 C-74.22920449 446.57431563 -68.86413961 447.24989833 -62.59288025 447.2515564 C-61.88059456 447.25452654 -61.16830887 447.25749667 -60.43443877 447.26055682 C-58.06550247 447.26814991 -55.69681757 447.26172232 -53.32788086 447.25537109 C-51.62231784 447.25812313 -49.9167561 447.26180432 -48.2111969 447.26634216 C-44.54717717 447.27443578 -40.88321839 447.27662729 -37.2191906 447.27439499 C-31.42427988 447.2715566 -25.62949053 447.28593251 -19.83460999 447.30337524 C-3.35940356 447.35035513 13.11579399 447.37434927 29.59106445 447.38085938 C38.69691773 447.38460932 47.80263304 447.40263008 56.90842718 447.43595374 C62.66806887 447.45616997 68.42735484 447.45853739 74.18701756 447.44767356 C77.76995085 447.44506669 81.35267685 447.45906865 84.93555641 447.47775459 C86.595581 447.48307704 88.25564375 447.48157886 89.91565323 447.47271919 C92.18421888 447.46158878 94.45138359 447.47503799 96.71986389 447.49447632 C97.98837724 447.49556585 99.25689058 447.49665539 100.56384373 447.49777794 C105.86532546 448.27263242 108.91984822 450.71549518 112.3125 454.75 C115.06978232 460.06032151 115.72627647 464.53368866 113.9375 470.1875 C111.92386583 474.92326926 108.59835266 477.70082367 104 480 C101.60890534 480.10399138 99.24653049 480.14779919 96.85488892 480.14717102 C96.11027322 480.15084771 95.36565753 480.1545244 94.59847772 480.1583125 C92.08989624 480.16937262 89.58135615 480.17319721 87.07275391 480.17700195 C85.27914294 480.18326518 83.48553328 480.18991185 81.69192505 480.19691467 C75.78681344 480.21798579 69.8817015 480.22832439 63.9765625 480.23828125 C61.9430477 480.24232859 59.90953304 480.2464455 57.87601852 480.25063133 C48.31641344 480.26969487 38.7568161 480.28391975 29.19719565 480.2922433 C18.17296602 480.30200071 7.14893799 480.32827619 -3.87522066 480.36874419 C-12.40022046 480.39895998 -20.92516269 480.41371762 -29.45021498 480.41702431 C-34.53900755 480.41936988 -39.62758507 480.42826495 -44.71632004 480.45348549 C-49.5114606 480.47686479 -54.30624607 480.48095997 -59.10142899 480.47072411 C-60.85408971 480.47023091 -62.60676848 480.47648687 -64.359375 480.49028015 C-81.01336074 480.61392919 -93.22704817 477.30616865 -105.75 465.6875 C-116.50723149 454.32136861 -118.45496849 441.87771863 -118.38768005 426.75564575 C-118.39185836 425.22113782 -118.39733859 423.68663298 -118.40399987 422.15213382 C-118.4184081 417.95644706 -118.41422428 413.76095751 -118.40683305 409.56526017 C-118.4020922 405.03208481 -118.41461935 400.49895155 -118.42485046 395.96578979 C-118.4420259 387.09305246 -118.44288107 378.22038599 -118.43763756 369.34763636 C-118.43359225 362.13401137 -118.43504371 354.92040729 -118.44038582 347.70678329 C-118.44113424 346.67916849 -118.44188266 345.65155368 -118.44265376 344.59279903 C-118.44418528 342.50503914 -118.44572363 340.41727926 -118.44726873 338.32951938 C-118.46098926 318.7612242 -118.45555925 299.19296904 -118.44408352 279.62467478 C-118.43415189 261.73403229 -118.44709141 243.84349323 -118.47101771 225.95286669 C-118.49541727 207.56943966 -118.50501445 189.1860608 -118.49836498 170.80261791 C-118.49487464 160.48704513 -118.49709266 150.17155188 -118.51461601 139.85599136 C-118.52934869 131.07452226 -118.52995948 122.2931887 -118.5125451 113.51172222 C-118.50404149 109.03424205 -118.5018699 104.5570039 -118.51719666 100.07953644 C-118.53107282 95.97491132 -118.52624327 91.87073491 -118.50695742 87.76613556 C-118.50320605 86.28709341 -118.50609436 84.80801507 -118.51656907 83.32900526 C-118.6211073 67.4285539 -114.52435574 55.93029027 -103.6875 44.25 C-92.8300315 33.9741816 -80.85415155 31.5223265 -66.3359375 31.70703125 C-65.06271637 31.71127609 -63.78949524 31.71552094 -62.47769165 31.71989441 C-59.12710905 31.73375085 -55.77716479 31.76060259 -52.42675781 31.79400635 C-48.99419609 31.82494597 -45.56156785 31.83845025 -42.12890625 31.85351562 C-35.41909773 31.88644913 -28.70958563 31.93654637 -22 32 C-22.0314209 31.04746338 -22.0314209 31.04746338 -22.06347656 30.07568359 C-22.14704581 27.17561924 -22.19878774 24.27580884 -22.25 21.375 C-22.28351563 20.37597656 -22.31703125 19.37695312 -22.3515625 18.34765625 C-22.43315123 12.18770715 -22.1132688 8.68372214 -18 4 C-12.72867143 -1.00776214 -6.89190982 -0.92775709 0 0 Z M-81.9375 69.75 C-92.12328537 85.80032846 -86 114.76339026 -86 128 C51.28 128 188.56 128 330 128 C333.61800232 100.3614229 333.61800232 100.3614229 324.25 68.0625 C317.31855827 63.66370044 310.80468397 63.72335139 302.81640625 63.8046875 C301.23314796 63.80893234 301.23314796 63.80893234 299.61790466 63.81326294 C296.26598496 63.82440585 292.91433816 63.84949976 289.5625 63.875 C287.28190492 63.8850374 285.00130562 63.89416192 282.72070312 63.90234375 C277.14704322 63.92432588 271.57354111 63.95774463 266 64 C265.56300781 65.89105469 265.56300781 65.89105469 265.1171875 67.8203125 C264.07060047 72.34934843 262.27475692 75.57072795 258.234375 78.109375 C253.70341155 79.91542337 248.7797052 79.51828129 244 79 C239.48665736 76.86210085 237.05714674 74.547377 235 70 C234.67 68.02 234.34 66.04 234 64 C160.08 64 86.16 64 10 64 C9.34 66.64 8.68 69.28 8 72 C5.71985898 75.49621624 3.85685668 77.46265153 0 79 C-5.56875991 79.66701024 -10.45525508 79.73172128 -15.5625 77.3125 C-19.93402631 73.16515453 -21.11794712 69.87495774 -22 64 C-28.6710674 63.92355617 -35.34202063 63.87123558 -42.01342773 63.83520508 C-44.28007224 63.82017492 -46.54668794 63.79974518 -48.81323242 63.77368164 C-52.08259213 63.73704412 -55.35156527 63.7202154 -58.62109375 63.70703125 C-59.62458359 63.69154739 -60.62807343 63.67606354 -61.66197205 63.66011047 C-68.89879316 63.6584029 -76.75725685 64.08836146 -81.9375 69.75 Z " fill="#f56e0f" transform="translate(134,16)"/>
<path d="M0 0 C4.16347012 3.4964018 8.08707008 7.22822917 12 11 C12.71800781 11.65484375 13.43601562 12.3096875 14.17578125 12.984375 C20.46536293 18.88322115 25.23469978 25.86116307 30 33 C30.63035156 33.93457031 31.26070312 34.86914062 31.91015625 35.83203125 C49.23044184 63.41034475 53.95913247 99.78984875 46.83911133 131.37744141 C40.98202063 154.57300651 29.50045466 174.76553935 13 192 C11.97519531 193.11955078 11.97519531 193.11955078 10.9296875 194.26171875 C4.66722196 200.88236958 -2.44348262 205.97963336 -10 211 C-10.93328125 211.6290625 -11.8665625 212.258125 -12.828125 212.90625 C-40.39820716 230.23601593 -76.79464759 234.95805078 -108.37744141 227.83911133 C-132.12223889 221.84333447 -152.44853072 209.91829939 -170 193 C-171.07701172 192.01773438 -171.07701172 192.01773438 -172.17578125 191.015625 C-178.46536293 185.11677885 -183.23469978 178.13883693 -188 171 C-188.63035156 170.06542969 -189.26070313 169.13085938 -189.91015625 168.16796875 C-207.23044184 140.58965525 -211.95913247 104.21015125 -204.83911133 72.62255859 C-198.84333447 48.87776111 -186.91829939 28.55146928 -170 11 C-169.34515625 10.28199219 -168.6903125 9.56398438 -168.015625 8.82421875 C-162.11677885 2.53463707 -155.13883693 -2.23469978 -148 -7 C-147.06542969 -7.63035156 -146.13085938 -8.26070313 -145.16796875 -8.91015625 C-101.47012457 -36.35415281 -40.12596623 -31.83598863 0 0 Z M-143 31 C-143.87269531 31.804375 -144.74539063 32.60875 -145.64453125 33.4375 C-162.00588657 49.13655158 -173.74844433 71.67296153 -174.23828125 94.67578125 C-174.74231297 124.88575468 -166.42991587 149.0823995 -145.125 171.1875 C-127.72147836 188.1156599 -104.21743265 197.56004664 -80 198 C-55.70708581 197.57684552 -32.93959496 189.67227664 -15 173 C-14.12730469 172.195625 -13.25460937 171.39125 -12.35546875 170.5625 C4.00588657 154.86344842 15.74844433 132.32703847 16.23828125 109.32421875 C16.74231297 79.11424532 8.42991587 54.9176005 -12.875 32.8125 C-48.22414305 -1.57111259 -106.81975969 -2.62433636 -143 31 Z " fill="#f56e0f" transform="translate(447,266)"/>
<path d="M0 0 C4.59353236 2.13271145 8.19123847 5.17959199 10 10 C10.30238435 14.47354579 9.91332147 18.88170736 9.58984375 23.34765625 C9.46046341 26.05312869 9.33914155 28.75725862 9.23413086 31.46362305 C9.20674017 32.16327305 9.17934948 32.86292305 9.15112877 33.58377457 C7.45007935 61.48156593 7.45007935 61.48156593 19.3551178 85.60649109 C24.74034843 91.00789844 30.76033867 95.69865736 37.12670898 99.88354492 C39.84691995 101.88724182 40.97777069 102.85127382 42 106 C42.66071926 111.51623758 42.73198334 116.4234205 40.375 121.5 C35.80134327 126.3143755 32.6912538 128.25156236 26 128.5 C19.01636729 128.57274617 15.04512149 125.11541886 10.22949219 120.48828125 C8.82989309 119.10177738 7.43595607 117.7095413 6.046875 116.3125 C4.93472626 115.20322144 4.93472626 115.20322144 3.80010986 114.0715332 C2.24123404 112.51401325 0.68486049 110.95398525 -0.86914062 109.39160156 C-3.24908972 107.00091439 -5.63955579 104.62111816 -8.03125 102.2421875 C-9.54751695 100.72459945 -11.06316364 99.20639138 -12.578125 97.6875 C-13.2926886 96.97698486 -14.0072522 96.26646973 -14.74346924 95.53442383 C-15.40465759 94.86693115 -16.06584595 94.19943848 -16.74707031 93.51171875 C-17.32853821 92.92865967 -17.9100061 92.34560059 -18.50909424 91.74487305 C-22.04293908 87.60905791 -22.29752701 83.96889656 -22.29052734 78.66455078 C-22.29724457 77.93233307 -22.30396179 77.20011536 -22.31088257 76.44570923 C-22.32985626 74.02884099 -22.33378643 71.61225055 -22.3359375 69.1953125 C-22.34236594 67.51146328 -22.34909434 65.82761519 -22.35610962 64.14376831 C-22.36808084 60.61486217 -22.37179061 57.08605392 -22.37060547 53.55712891 C-22.3704023 49.04217573 -22.3977023 44.52785218 -22.43214989 40.01304817 C-22.45442216 36.53511693 -22.45844291 33.05733713 -22.45738602 29.57934189 C-22.45974157 27.915209 -22.46856255 26.25107191 -22.48405075 24.58700943 C-22.50371791 22.25564134 -22.49787098 19.92562971 -22.48583984 17.59423828 C-22.49707886 16.91143799 -22.50831787 16.2286377 -22.51989746 15.52514648 C-22.45530643 10.58249822 -21.04469346 7.82941413 -18 4 C-12.72867143 -1.00776214 -6.89190982 -0.92775709 0 0 Z " fill="#f56e0f" transform="translate(374,288)"/>
<path d="M0 0 C0.95390625 -0.0038269 1.9078125 -0.00765381 2.890625 -0.01159668 C4.90105245 -0.01431036 6.91151553 -0.00698737 8.921875 0.00976562 C11.99038787 0.03118291 15.05655952 0.00994534 18.125 -0.015625 C20.08333848 -0.01298163 22.0416755 -0.00785645 24 0 C25.36898437 -0.01214539 25.36898437 -0.01214539 26.765625 -0.02453613 C32.34723968 0.05719316 35.57473138 0.80813314 40 4.53125 C43.62833663 8.35055172 44.31000458 11.41404006 44.5 16.53125 C44.31000458 21.64845994 43.62833663 24.71194828 40 28.53125 C34.73573631 32.96023965 30.57725694 33.12085225 24 33.0625 C22.56914062 33.06824036 22.56914062 33.06824036 21.109375 33.07409668 C19.09894755 33.07681036 17.08848447 33.06948737 15.078125 33.05273438 C12.00961213 33.03131709 8.94344048 33.05255466 5.875 33.078125 C3.91666152 33.07548163 1.9583245 33.07035645 0 33.0625 C-1.36898437 33.07464539 -1.36898437 33.07464539 -2.765625 33.08703613 C-8.34723968 33.00530684 -11.57473138 32.25436686 -16 28.53125 C-19.62833663 24.71194828 -20.31000458 21.64845994 -20.5 16.53125 C-20.31000458 11.41404006 -19.62833663 8.35055172 -16 4.53125 C-10.73573631 0.10226035 -6.57725694 -0.05835225 0 0 Z " fill="#f56e0f" transform="translate(116,383.46875)"/>
<path d="M0 0 C0.95390625 -0.0038269 1.9078125 -0.00765381 2.890625 -0.01159668 C4.90105245 -0.01431036 6.91151553 -0.00698737 8.921875 0.00976562 C11.99038787 0.03118291 15.05655952 0.00994534 18.125 -0.015625 C20.08333848 -0.01298163 22.0416755 -0.00785645 24 0 C25.36898437 -0.01214539 25.36898437 -0.01214539 26.765625 -0.02453613 C32.34723968 0.05719316 35.57473138 0.80813314 40 4.53125 C43.62833663 8.35055172 44.31000458 11.41404006 44.5 16.53125 C44.31000458 21.64845994 43.62833663 24.71194828 40 28.53125 C34.73573631 32.96023965 30.57725694 33.12085225 24 33.0625 C22.56914062 33.06824036 22.56914062 33.06824036 21.109375 33.07409668 C19.09894755 33.07681036 17.08848447 33.06948737 15.078125 33.05273438 C12.00961213 33.03131709 8.94344048 33.05255466 5.875 33.078125 C3.91666152 33.07548163 1.9583245 33.07035645 0 33.0625 C-1.36898437 33.07464539 -1.36898437 33.07464539 -2.765625 33.08703613 C-8.34723968 33.00530684 -11.57473138 32.25436686 -16 28.53125 C-19.62833663 24.71194828 -20.31000458 21.64845994 -20.5 16.53125 C-20.31000458 11.41404006 -19.62833663 8.35055172 -16 4.53125 C-10.73573631 0.10226035 -6.57725694 -0.05835225 0 0 Z " fill="#f56e0f" transform="translate(116,303.46875)"/>
<path d="M0 0 C0.95390625 -0.0038269 1.9078125 -0.00765381 2.890625 -0.01159668 C4.90105245 -0.01431036 6.91151553 -0.00698737 8.921875 0.00976562 C11.99038787 0.03118291 15.05655952 0.00994534 18.125 -0.015625 C20.08333848 -0.01298163 22.0416755 -0.00785645 24 0 C25.36898437 -0.01214539 25.36898437 -0.01214539 26.765625 -0.02453613 C32.34723968 0.05719316 35.57473138 0.80813314 40 4.53125 C43.62833663 8.35055172 44.31000458 11.41404006 44.5 16.53125 C44.31000458 21.64845994 43.62833663 24.71194828 40 28.53125 C34.73573631 32.96023965 30.57725694 33.12085225 24 33.0625 C22.56914062 33.06824036 22.56914062 33.06824036 21.109375 33.07409668 C19.09894755 33.07681036 17.08848447 33.06948737 15.078125 33.05273438 C12.00961213 33.03131709 8.94344048 33.05255466 5.875 33.078125 C3.91666152 33.07548163 1.9583245 33.07035645 0 33.0625 C-1.36898437 33.07464539 -1.36898437 33.07464539 -2.765625 33.08703613 C-8.34723968 33.00530684 -11.57473138 32.25436686 -16 28.53125 C-19.62833663 24.71194828 -20.31000458 21.64845994 -20.5 16.53125 C-20.31000458 11.41404006 -19.62833663 8.35055172 -16 4.53125 C-10.73573631 0.10226035 -6.57725694 -0.05835225 0 0 Z " fill="#f56e0f" transform="translate(116,223.46875)"/>
<path d="M0 0 C1.258125 -0.01546875 2.51625 -0.0309375 3.8125 -0.046875 C15.18707649 0.00132236 15.18707649 0.00132236 20 4.5 C23.62833663 8.31930172 24.31000458 11.38279006 24.5 16.5 C24.25785043 23.02189504 22.4755875 26.1860488 17.7265625 30.625 C12.54730228 33.98400724 5.92240933 33.07281651 0 33 C-1.258125 33.01546875 -2.51625 33.0309375 -3.8125 33.046875 C-15.18707649 32.99867764 -15.18707649 32.99867764 -20 28.5 C-23.62833663 24.68069828 -24.31000458 21.61720994 -24.5 16.5 C-24.25785043 9.97810496 -22.4755875 6.8139512 -17.7265625 2.375 C-12.54730228 -0.98400724 -5.92240933 -0.07281651 0 0 Z " fill="#f56e0f" transform="translate(248,223.5)"/>
</svg>
